<svg width="184" height="40" viewBox="0 0 184 40" fill="none" xmlns="http://www.w3.org/2000/svg">
<path d="M61.0078 26.3887C60.3333 27.3548 59.39 28.0794 58.1777 28.5625C56.9746 29.0365 55.571 29.2734 53.9668 29.2734C52.3444 29.2734 50.9043 28.8952 49.6465 28.1387C48.3887 27.373 47.4134 26.2884 46.7207 24.8848C46.0371 23.4811 45.6862 21.8542 45.668 20.0039V18.2676C45.668 15.2689 46.3652 12.9447 47.7598 11.2949C49.1634 9.64518 51.1322 8.82031 53.666 8.82031C55.7441 8.82031 57.4167 9.35352 58.6836 10.4199C59.9505 11.4772 60.7253 12.9811 61.0078 14.9316H58.3828C57.8906 12.2975 56.3229 10.9805 53.6797 10.9805C51.9206 10.9805 50.5853 11.6003 49.6738 12.8398C48.7715 14.0703 48.3158 15.8568 48.3066 18.1992V19.8262C48.3066 22.0592 48.8171 23.8366 49.8379 25.1582C50.8587 26.4707 52.2396 27.127 53.9805 27.127C54.9648 27.127 55.8262 27.0176 56.5645 26.7988C57.3027 26.5801 57.9134 26.2109 58.3965 25.6914V21.2207H53.7891V19.0879H61.0078V26.3887ZM64.3301 21.4668C64.3301 20.0176 64.6126 18.7142 65.1777 17.5566C65.752 16.3991 66.5449 15.5059 67.5566 14.877C68.5775 14.248 69.7396 13.9336 71.043 13.9336C73.0573 13.9336 74.6842 14.6309 75.9238 16.0254C77.1725 17.4199 77.7969 19.2747 77.7969 21.5898V21.7676C77.7969 23.2077 77.5189 24.502 76.9629 25.6504C76.416 26.7897 75.6276 27.6784 74.5977 28.3164C73.5768 28.9544 72.401 29.2734 71.0703 29.2734C69.0651 29.2734 67.4382 28.5762 66.1895 27.1816C64.9499 25.7871 64.3301 23.9414 64.3301 21.6445V21.4668ZM66.873 21.7676C66.873 23.4082 67.2513 24.7253 68.0078 25.7188C68.7734 26.7122 69.7943 27.209 71.0703 27.209C72.3555 27.209 73.3763 26.7077 74.1328 25.7051C74.8893 24.6934 75.2676 23.2806 75.2676 21.4668C75.2676 19.8444 74.8802 18.5319 74.1055 17.5293C73.3398 16.5176 72.319 16.0117 71.043 16.0117C69.7943 16.0117 68.7871 16.5085 68.0215 17.502C67.2559 18.4954 66.873 19.9173 66.873 21.7676ZM96.3359 23.2578L99.0156 9.09375H103.104L98.6875 29H94.5586L91.3184 15.6836L88.0781 29H83.9492L79.5332 9.09375H83.6211L86.3145 23.2305L89.5957 9.09375H93.0684L96.3359 23.2578ZM111.443 29.2734C109.274 29.2734 107.506 28.6081 106.139 27.2773C104.781 25.9466 104.102 24.1738 104.102 21.959V21.5762C104.102 20.0905 104.389 18.7643 104.963 17.5977C105.537 16.4219 106.348 15.5195 107.396 14.8906C108.454 14.2526 109.657 13.9336 111.006 13.9336C113.029 13.9336 114.62 14.5716 115.777 15.8477C116.944 17.1237 117.527 18.9329 117.527 21.2754V22.8887H108.107C108.235 23.8548 108.618 24.6296 109.256 25.2129C109.903 25.7962 110.719 26.0879 111.703 26.0879C113.225 26.0879 114.415 25.5365 115.271 24.4336L117.213 26.6074C116.62 27.446 115.818 28.1022 114.807 28.5762C113.795 29.041 112.674 29.2734 111.443 29.2734ZM110.992 17.1328C110.208 17.1328 109.57 17.3971 109.078 17.9258C108.595 18.4544 108.285 19.2109 108.148 20.1953H113.645V19.8809C113.626 19.0059 113.389 18.3314 112.934 17.8574C112.478 17.3743 111.831 17.1328 110.992 17.1328ZM128.355 29C128.173 28.6445 128.041 28.2025 127.959 27.6738C127.002 28.7402 125.758 29.2734 124.227 29.2734C122.777 29.2734 121.574 28.8542 120.617 28.0156C119.669 27.1771 119.195 26.1198 119.195 24.8438C119.195 23.276 119.774 22.0729 120.932 21.2344C122.098 20.3958 123.78 19.972 125.977 19.9629H127.795V19.1152C127.795 18.4316 127.617 17.8848 127.262 17.4746C126.915 17.0645 126.364 16.8594 125.607 16.8594C124.942 16.8594 124.418 17.0189 124.035 17.3379C123.661 17.6569 123.475 18.0944 123.475 18.6504H119.523C119.523 17.7936 119.788 17.0007 120.316 16.2715C120.845 15.5423 121.592 14.9727 122.559 14.5625C123.525 14.1432 124.609 13.9336 125.812 13.9336C127.635 13.9336 129.08 14.3939 130.146 15.3145C131.222 16.2259 131.76 17.5111 131.76 19.1699V25.582C131.769 26.9857 131.965 28.0475 132.348 28.7676V29H128.355ZM125.088 26.252C125.671 26.252 126.209 26.1243 126.701 25.8691C127.193 25.6048 127.558 25.2539 127.795 24.8164V22.2734H126.318C124.34 22.2734 123.288 22.957 123.16 24.3242L123.146 24.5566C123.146 25.0488 123.32 25.4544 123.666 25.7734C124.012 26.0924 124.486 26.252 125.088 26.252ZM139.525 10.5703V14.207H142.055V17.1055H139.525V24.4883C139.525 25.0352 139.63 25.4271 139.84 25.6641C140.049 25.901 140.451 26.0195 141.043 26.0195C141.48 26.0195 141.868 25.9876 142.205 25.9238V28.918C141.43 29.1549 140.633 29.2734 139.812 29.2734C137.042 29.2734 135.629 27.8743 135.574 25.0762V17.1055H133.414V14.207H135.574V10.5703H139.525ZM148.111 15.8203C149.16 14.5625 150.477 13.9336 152.062 13.9336C155.271 13.9336 156.898 15.7975 156.943 19.5254V29H152.992V19.6348C152.992 18.7871 152.81 18.1628 152.445 17.7617C152.081 17.3516 151.475 17.1465 150.627 17.1465C149.469 17.1465 148.631 17.5931 148.111 18.4863V29H144.16V8H148.111V15.8203ZM166.732 29.2734C164.563 29.2734 162.795 28.6081 161.428 27.2773C160.07 25.9466 159.391 24.1738 159.391 21.959V21.5762C159.391 20.0905 159.678 18.7643 160.252 17.5977C160.826 16.4219 161.637 15.5195 162.686 14.8906C163.743 14.2526 164.946 13.9336 166.295 13.9336C168.318 13.9336 169.909 14.5716 171.066 15.8477C172.233 17.1237 172.816 18.9329 172.816 21.2754V22.8887H163.396C163.524 23.8548 163.907 24.6296 164.545 25.2129C165.192 25.7962 166.008 26.0879 166.992 26.0879C168.514 26.0879 169.704 25.5365 170.561 24.4336L172.502 26.6074C171.91 27.446 171.107 28.1022 170.096 28.5762C169.084 29.041 167.963 29.2734 166.732 29.2734ZM166.281 17.1328C165.497 17.1328 164.859 17.3971 164.367 17.9258C163.884 18.4544 163.574 19.2109 163.438 20.1953H168.934V19.8809C168.915 19.0059 168.678 18.3314 168.223 17.8574C167.767 17.3743 167.12 17.1328 166.281 17.1328ZM183.385 17.9121C182.847 17.8392 182.373 17.8027 181.963 17.8027C180.468 17.8027 179.488 18.3086 179.023 19.3203V29H175.072V14.207H178.805L178.914 15.9707C179.707 14.6126 180.805 13.9336 182.209 13.9336C182.646 13.9336 183.057 13.9928 183.439 14.1113L183.385 17.9121Z" fill="black"/>
<path d="M21.25 4.58334C21.25 4.25182 21.1183 3.93388 20.8839 3.69946C20.6495 3.46504 20.3315 3.33334 20 3.33334C19.6685 3.33334 19.3505 3.46504 19.1161 3.69946C18.8817 3.93388 18.75 4.25182 18.75 4.58334V7.08334C18.75 7.41486 18.8817 7.73281 19.1161 7.96723C19.3505 8.20165 19.6685 8.33334 20 8.33334C20.3315 8.33334 20.6495 8.20165 20.8839 7.96723C21.1183 7.73281 21.25 7.41486 21.25 7.08334V4.58334Z" fill="#FF4831"/>
<path d="M31.7167 8.28333C31.9507 8.51771 32.0822 8.83541 32.0822 9.16666C32.0822 9.49791 31.9507 9.81562 31.7167 10.05L29.95 11.8183C29.7143 12.0461 29.3987 12.1723 29.0709 12.1696C28.7432 12.1669 28.4296 12.0356 28.1977 11.8039C27.9658 11.5723 27.8342 11.2588 27.8312 10.9311C27.8282 10.6033 27.9541 10.2875 28.1817 10.0517L29.9483 8.28333C30.0644 8.16717 30.2022 8.07503 30.354 8.01216C30.5057 7.94929 30.6683 7.91693 30.8325 7.91693C30.9967 7.91693 31.1593 7.94929 31.311 8.01216C31.4627 8.07503 31.6006 8.16717 31.7167 8.28333Z" fill="#FF4831"/>
<path d="M10.9833 21.6667C10.7405 20.3447 10.7914 18.9856 11.1323 17.6855C11.4732 16.3854 12.0959 15.1761 12.9561 14.1435C13.8164 13.1108 14.8933 12.2799 16.1104 11.7097C17.3275 11.1395 18.6551 10.844 19.9992 10.844C21.3432 10.844 22.6708 11.1395 23.888 11.7097C25.1051 12.2799 26.1819 13.1108 27.0422 14.1435C27.9025 15.1761 28.5251 16.3854 28.866 17.6855C29.207 18.9856 29.2578 20.3447 29.015 21.6667H35.4167C35.7482 21.6667 36.0661 21.7984 36.3005 22.0328C36.535 22.2672 36.6667 22.5852 36.6667 22.9167C36.6667 23.2482 36.535 23.5662 36.3005 23.8006C36.0661 24.035 35.7482 24.1667 35.4167 24.1667H4.58334C4.25182 24.1667 3.93387 24.035 3.69945 23.8006C3.46503 23.5662 3.33334 23.2482 3.33334 22.9167C3.33334 22.5852 3.46503 22.2672 3.69945 22.0328C3.93387 21.7984 4.25182 21.6667 4.58334 21.6667H10.9833Z" fill="#FF4831"/>
<path d="M11.25 26.6667C10.9185 26.6667 10.6005 26.7984 10.3661 27.0328C10.1317 27.2672 10 27.5852 10 27.9167C10 28.2482 10.1317 28.5662 10.3661 28.8006C10.6005 29.035 10.9185 29.1667 11.25 29.1667H28.75C29.0815 29.1667 29.3995 29.035 29.6339 28.8006C29.8683 28.5662 30 28.2482 30 27.9167C30 27.5852 29.8683 27.2672 29.6339 27.0328C29.3995 26.7984 29.0815 26.6667 28.75 26.6667H11.25Z" fill="#FF4831"/>
<path d="M17.9167 31.6667C17.5852 31.6667 17.2672 31.7984 17.0328 32.0328C16.7984 32.2672 16.6667 32.5852 16.6667 32.9167C16.6667 33.2482 16.7984 33.5661 17.0328 33.8006C17.2672 34.035 17.5852 34.1667 17.9167 34.1667H22.0833C22.4149 34.1667 22.7328 34.035 22.9672 33.8006C23.2016 33.5661 23.3333 33.2482 23.3333 32.9167C23.3333 32.5852 23.2016 32.2672 22.9672 32.0328C22.7328 31.7984 22.4149 31.6667 22.0833 31.6667H17.9167Z" fill="#FF4831"/>
<path d="M8.28334 8.28335C8.51771 8.04927 8.83542 7.91779 9.16667 7.91779C9.49792 7.91779 9.81563 8.04927 10.05 8.28335L11.8183 10.05C11.9378 10.1653 12.0331 10.3032 12.0987 10.4556C12.1642 10.6081 12.1988 10.7721 12.2003 10.9381C12.2018 11.1041 12.1703 11.2687 12.1075 11.4223C12.0447 11.576 11.952 11.7156 11.8347 11.833C11.7174 11.9504 11.5778 12.0433 11.4242 12.1062C11.2707 12.1691 11.1061 12.2009 10.9401 12.1995C10.7741 12.1981 10.6101 12.1637 10.4575 12.0983C10.305 12.0328 10.167 11.9377 10.0517 11.8184L8.28334 10.0517C8.16718 9.9356 8.07503 9.79777 8.01217 9.64606C7.9493 9.49435 7.91694 9.33174 7.91694 9.16752C7.91694 9.0033 7.9493 8.84069 8.01217 8.68898C8.07503 8.53727 8.16718 8.39944 8.28334 8.28335Z" fill="#FF4831"/>
</svg>
